<?xml version="1.0" encoding="UTF-8" standalone="no"?>
<!-- Created with Inkscape (http://www.inkscape.org/) -->

<svg
   width="32"
   height="32"
   viewBox="0 0 8.4666668 8.4666668"
   version="1.1"
   id="svg5"
   sodipodi:docname="close.svg"
   inkscape:version="1.2.1 (9c6d41e410, 2022-07-14)"
   xmlns:inkscape="http://www.inkscape.org/namespaces/inkscape"
   xmlns:sodipodi="http://sodipodi.sourceforge.net/DTD/sodipodi-0.dtd"
   xmlns:xlink="http://www.w3.org/1999/xlink"
   xmlns="http://www.w3.org/2000/svg"
   xmlns:svg="http://www.w3.org/2000/svg">
  <sodipodi:namedview
     id="namedview7"
     pagecolor="#d2d2d2"
     bordercolor="#000000"
     borderopacity="0.25"
     inkscape:showpageshadow="2"
     inkscape:pageopacity="0"
     inkscape:pagecheckerboard="0"
     inkscape:deskcolor="#d1d1d1"
     inkscape:document-units="px"
     showgrid="true"
     inkscape:zoom="16"
     inkscape:cx="20.25"
     inkscape:cy="14.5"
     inkscape:window-width="1880"
     inkscape:window-height="1080"
     inkscape:window-x="1120"
     inkscape:window-y="1300"
     inkscape:window-maximized="0"
     inkscape:current-layer="path1833"
     showborder="true">
    <inkscape:grid
       type="xygrid"
       id="grid1398"
       empspacing="4"
       originx="0"
       originy="0" />
  </sodipodi:namedview>
  <defs
     id="defs2">
    <linearGradient
       inkscape:collect="always"
       id="linearGradient2123">
      <stop
         style="stop-color:#ffffff;stop-opacity:1;"
         offset="0"
         id="stop2119" />
      <stop
         style="stop-color:#ffffff;stop-opacity:0.49842715;"
         offset="0.48059711"
         id="stop2125" />
      <stop
         style="stop-color:#000000;stop-opacity:0.50296324;"
         offset="0.5177303"
         id="stop2127" />
      <stop
         style="stop-color:#000000;stop-opacity:0.70340544;"
         offset="1"
         id="stop2121" />
    </linearGradient>
    <linearGradient
       inkscape:collect="always"
       xlink:href="#linearGradient2123"
       id="linearGradient2117"
       x1="1.0583334"
       y1="1.0583334"
       x2="7.4083333"
       y2="7.4083333"
       gradientUnits="userSpaceOnUse" />
    <linearGradient
       inkscape:collect="always"
       xlink:href="#linearGradient2123"
       id="linearGradient2216"
       gradientUnits="userSpaceOnUse"
       x1="7.6729169"
       y1="7.6729169"
       x2="0.79374999"
       y2="0.79374999" />
  </defs>
  <g
     inkscape:label="Layer 1"
     inkscape:groupmode="layer"
     id="layer1">
    <g
       id="path1833">
      <path
         id="path1859"
         style="color:#000000;fill:url(#linearGradient2216);font-variation-settings:normal;opacity:1;vector-effect:none;fill-opacity:1;stroke-width:0.529167;stroke-linecap:butt;stroke-linejoin:miter;stroke-miterlimit:4;stroke-dasharray:none;stroke-dashoffset:0;stroke-opacity:1;-inkscape-stroke:none;stop-color:#000000;stop-opacity:1"
         d="M 1.5859497 0.56482341 C 1.3579101 0.56489223 1.0960395 0.64648976 0.87126466 0.87126466 C 0.54431942 1.19821 0.52080793 1.6037651 0.60926515 1.8691366 C 0.69772235 2.1345082 0.87126466 2.3047689 0.87126466 2.3047689 L 2.8008627 4.2343669 L 0.87126466 6.1618979 C 0.87126466 6.1618979 0.69772225 6.3321587 0.60926515 6.5975302 C 0.52080801 6.8629018 0.54431957 7.2689738 0.87126466 7.5959189 C 1.1982098 7.922864 1.6037651 7.9458587 1.8691366 7.8574017 C 2.1345081 7.7689444 2.3047689 7.5959189 2.3047689 7.5959189 L 4.2343669 5.6658041 L 6.1618979 7.5959189 C 6.1618979 7.5959189 6.3321587 7.7689444 6.5975302 7.8574017 C 6.8629018 7.9458585 7.2689738 7.9228641 7.5959189 7.5959189 C 7.922864 7.2689738 7.9458587 6.8629018 7.8574017 6.5975302 C 7.7689444 6.3321587 7.5959189 6.1618979 7.5959189 6.1618979 L 5.6658041 4.2343669 L 7.5959189 2.3047689 C 7.5959189 2.3047689 7.7689444 2.1345081 7.8574017 1.8691366 C 7.9458587 1.6037651 7.922864 1.1982098 7.5959189 0.87126466 C 7.2689738 0.54431951 6.8629018 0.52080803 6.5975302 0.60926515 C 6.3321587 0.69772225 6.1618979 0.87126466 6.1618979 0.87126466 L 4.2322999 2.8008627 L 2.3047689 0.87126466 C 2.3047689 0.87126466 2.1345082 0.69772237 1.8691366 0.60926515 C 1.786208 0.58162226 1.6896041 0.56479214 1.5859497 0.56482341 z M 1.5518433 0.82320558 C 1.5620298 0.8229489 1.572307 0.82297245 1.5823324 0.82320558 C 1.8885631 0.83032722 2.1166667 1.0583334 2.1166667 1.0583334 L 4.2333334 3.1750001 L 6.3500001 1.0583334 C 6.3500001 1.0583333 6.8791684 0.52916811 7.4083335 1.0583334 C 7.9374983 1.5874983 7.4083335 2.1166667 7.4083335 2.1166667 L 5.2916668 4.2333334 L 7.4083335 6.3500001 C 7.4083335 6.3500001 7.9374983 6.8791683 7.4083335 7.4083335 C 6.8791684 7.9374984 6.3500001 7.4083335 6.3500001 7.4083335 L 4.2333334 5.2916668 L 2.1166667 7.4083335 C 2.1166667 7.4083335 1.5874983 7.9374983 1.0583334 7.4083335 C 0.52916812 6.8791684 1.0583334 6.3500001 1.0583334 6.3500001 L 3.1750001 4.2333334 L 1.0583334 2.1166667 C 1.0583333 2.1166667 0.52916774 1.5874989 1.0583334 1.0583334 C 1.2288652 0.88780141 1.399045 0.82705576 1.5518433 0.82320558 z " />
      <path
         id="path1857"
         style="color:#000000;fill:url(#linearGradient2117);stroke-width:0.529167;fill-opacity:1"
         d="M 1.5823324 0.82320558 C 1.4219257 0.81947519 1.2402342 0.87643247 1.0583334 1.0583334 C 0.52916726 1.5874995 1.0583333 2.1166667 1.0583334 2.1166667 L 3.1750001 4.2333334 L 1.0583334 6.3500001 C 1.0583334 6.3500001 0.52916764 6.8791679 1.0583334 7.4083335 C 1.5874989 7.9374989 2.1166667 7.4083335 2.1166667 7.4083335 L 4.2333334 5.2916668 L 6.3500001 7.4083335 C 6.3500001 7.4083335 6.8791679 7.937499 7.4083335 7.4083335 C 7.9374989 6.8791678 7.4083335 6.3500001 7.4083335 6.3500001 L 5.2916668 4.2333334 L 7.4083335 2.1166667 C 7.4083335 2.1166667 7.9374989 1.5874989 7.4083335 1.0583334 C 6.8791679 0.52916763 6.3500001 1.0583334 6.3500001 1.0583334 L 4.2333334 3.1750001 L 2.1166667 1.0583334 C 2.1166667 1.0583334 1.8885634 0.83032723 1.5823324 0.82320558 z M 1.5539103 1.0815877 C 1.6055127 1.0814968 1.6539419 1.0951223 1.7032552 1.1115601 C 1.8347575 1.155394 1.929598 1.2459188 1.929598 1.2459188 L 4.2322999 3.5486207 L 6.5370688 1.2459188 C 6.5370688 1.2459188 6.632426 1.1553946 6.7639283 1.1115601 C 6.8954308 1.067726 7.0185284 1.0436991 7.220748 1.2459188 C 7.4229676 1.4481385 7.3994576 1.5717528 7.3556235 1.7032552 C 7.3117894 1.8347577 7.220748 1.929598 7.220748 1.929598 L 4.9180461 4.2322999 L 7.220748 6.5370688 C 7.220748 6.5370688 7.3117889 6.632426 7.3556235 6.7639283 C 7.3994574 6.8954308 7.4229674 7.0185283 7.220748 7.220748 C 7.0185284 7.4229677 6.8954308 7.3994576 6.7639283 7.3556235 C 6.6324258 7.3117894 6.5370688 7.220748 6.5370688 7.220748 L 4.2322999 4.9180461 L 1.929598 7.220748 C 1.929598 7.220748 1.8347576 7.3117889 1.7032552 7.3556235 C 1.5717528 7.3994576 1.4481385 7.4229676 1.2459188 7.220748 C 1.0436991 7.0185284 1.067726 6.8954308 1.1115601 6.7639283 C 1.1553942 6.6324259 1.2459188 6.5370688 1.2459188 6.5370688 L 3.5486207 4.2322999 L 1.2459188 1.929598 C 1.2459188 1.929598 1.1553946 1.8347576 1.1115601 1.7032552 C 1.067726 1.571753 1.0436989 1.4481389 1.2459188 1.2459188 C 1.3723063 1.1195313 1.4679065 1.0817393 1.5539103 1.0815877 z " />
    </g>
  </g>
</svg>
